<svg width="72" height="72" viewBox="0 0 72 72" fill="none" xmlns="http://www.w3.org/2000/svg">
  <rect width="72" height="72" rx="20" fill="#020617" />
  <path
    d="M20 38C20 29.7157 26.7157 23 35 23H52V29H35C30.5817 29 27 32.5817 27 37C27 41.4183 30.5817 45 35 45H45V51H35C26.7157 51 20 44.2843 20 36Z"
    fill="#22C55E"
  />
  <path
    d="M32 36C32 32.6863 34.6863 30 38 30H52V36H38C37.4477 36 37 36.4477 37 37C37 37.5523 37.4477 38 38 38H48V44H38C34.6863 44 32 41.3137 32 38V36Z"
    fill="#38BDF8"
  />
</svg>

